{
  "accessors": [
    {
      "bufferView": 3,
      "componentType": 5126,
      "count": 5097,
      "max": [
        1.2153559923171997,
        0.6744110584259033,
        0.34416380524635315
      ],
      "min": [
        -1.2153559923171997,
        -0.012809373438358307,
        -1.3710334300994873
      ],
      "type": "VEC3"
    },
    {
      "bufferView": 3,
      "byteOffset": 61164,
      "componentType": 5126,
      "count": 5097,
      "max": [
        0.9997572302818298,
        0.9999039173126221,
        0.9984629154205322
      ],
      "min": [
        -0.9997244477272034,
        -0.999610960483551,
        -0.9997509121894836
      ],
      "type": "VEC3"
    },
    {
      "bufferView": 4,
      "componentType": 5126,
      "count": 5097,
      "max": [
        0.9999996423721313,
        1.0,
        0.9996729493141174,
        1.0
      ],
      "min": [
        -0.9998087286949158,
        -1.0,
        -0.9999788999557495,
        -1.0
      ],
      "type": "VEC4"
    },
    {
      "bufferView": 2,
      "componentType": 5126,
      "count": 5097,
      "max": [
        0.99072265625,
        0.9931640625
      ],
      "min": [
        0.0142669677734375,
        0.005695343017578125
      ],
      "type": "VEC2"
    },
    {
      "bufferView": 1,
      "componentType": 5125,
      "count": 24120,
      "type": "SCALAR"
    },
    {
      "bufferView": 3,
      "byteOffset": 122328,
      "componentType": 5126,
      "count": 4920,
      "max": [
        0.05492560565471649,
        0.4544956386089325,
        0.3112906813621521
      ],
      "min": [
        -0.05492560565471649,
        0.35977500677108765,
        0.24341201782226563
      ],
      "type": "VEC3"
    },
    {
      "bufferView": 3,
      "byteOffset": 181368,
      "componentType": 5126,
      "count": 4920,
      "max": [
        0.9983797073364258,
        0.9085500240325928,
        0.9999804496765137
      ],
      "min": [
        -0.9983797669410706,
        -0.9996125102043152,
        -0.26778075098991394
      ],
      "type": "VEC3"
    },
    {
      "bufferView": 4,
      "byteOffset": 81552,
      "componentType": 5126,
      "count": 4920,
      "max": [
        0.999994695186615,
        0.9966818690299988,
        0.9939032793045044,
        1.0
      ],
      "min": [
        -0.961775004863739,
        -0.9966822266578674,
        -0.9999924302101135,
        -1.0
      ],
      "type": "VEC4"
    },
    {
      "bufferView": 2,
      "byteOffset": 40776,
      "componentType": 5126,
      "count": 4920,
      "max": [
        0.6623464822769165,
        0.9153862595558167
      ],
      "min": [
        0.6168346405029297,
        0.8861308097839355
      ],
      "type": "VEC2"
    },
    {
      "bufferView": 1,
      "byteOffset": 96480,
      "componentType": 5125,
      "count": 4920,
      "type": "SCALAR"
    },
    {
      "bufferView": 5,
      "componentType": 5126,
      "count": 70,
      "max": [
        99.99996185302734,
        7.970881938934326,
        6.886240482330322,
        0.0,
        7.613916873931885,
        99.99998474121094,
        7.859420299530029,
        0.0,
        7.620927810668945,
        7.970607280731201,
        99.99998474121094,
        0.0,
        2.42655086517334,
        2.505891799926758,
        4.539504051208496,
        1.0
      ],
      "min": [
        -4.517756462097168,
        -7.970881938934326,
        -6.886241436004639,
        0.0,
        -7.613917827606201,
        -7.6744585037231445,
        -7.970608234405518,
        0.0,
        -7.620927810668945,
        -7.8594584465026855,
        -7.93764591217041,
        0.0,
        -2.4265501499176025,
        -8.778059959411621,
        -3.297405481338501,
        1.0
      ],
      "type": "MAT4"
    },
    {
      "bufferView": 0,
      "componentType": 5123,
      "count": 5097,
      "type": "VEC4"
    },
    {
      "bufferView": 4,
      "byteOffset": 160272,
      "componentType": 5126,
      "count": 5097,
      "max": [
        1.0,
        0.5,
        0.2702285051345825,
        0.16163817048072815
      ],
      "min": [
        0.3290712535381317,
        0.0,
        0.0,
        0.0
      ],
      "type": "VEC4"
    },
    {
      "bufferView": 0,
      "byteOffset": 40776,
      "componentType": 5123,
      "count": 4920,
      "type": "VEC4"
    },
    {
      "bufferView": 4,
      "byteOffset": 241824,
      "componentType": 5126,
      "count": 4920,
      "max": [
        1.0,
        0.4982096552848816,
        0.10430467873811722,
        0.0
      ],
      "min": [
        0.5017903447151184,
        0.0,
        0.0,
        0.0
      ],
      "type": "VEC4"
    }
  ],
  "asset": {
    "extras": {
      "author": "dinoguy263allo (https://sketchfab.com/dinoguy263allo)",
      "license": "CC-BY-4.0 (http://creativecommons.org/licenses/by/4.0/)",
      "source": "https://sketchfab.com/3d-models/skull-island-dragonfly-fba7a07f3fc342e8a750802b1cfbebf9",
      "title": "skull island dragonfly"
    },
    "generator": "Sketchfab-17.7.0",
    "version": "2.0"
  },
  "bufferViews": [
    {
      "buffer": 0,
      "byteLength": 80136,
      "byteStride": 8,
      "name": "shortBufferViews",
      "target": 34962
    },
    {
      "buffer": 0,
      "byteLength": 116160,
      "byteOffset": 80136,
      "name": "floatBufferViews",
      "target": 34963
    },
    {
      "buffer": 0,
      "byteLength": 80136,
      "byteOffset": 196296,
      "byteStride": 8,
      "name": "floatBufferViews",
      "target": 34962
    },
    {
      "buffer": 0,
      "byteLength": 240408,
      "byteOffset": 276432,
      "byteStride": 12,
      "name": "floatBufferViews",
      "target": 34962
    },
    {
      "buffer": 0,
      "byteLength": 320544,
      "byteOffset": 516840,
      "byteStride": 16,
      "name": "floatBufferViews",
      "target": 34962
    },
    {
      "buffer": 0,
      "byteLength": 4480,
      "byteOffset": 837384,
      "name": "floatBufferViews"
    }
  ],
  "buffers": [
    {
      "byteLength": 841864,
      "uri": "scene.bin"
    }
  ],
  "images": [
    {
      "uri": "textures/body_baseColor.png"
    },
    {
      "uri": "textures/body_normal.png"
    }
  ],
  "materials": [
    {
      "doubleSided": true,
      "name": "body",
      "normalTexture": {
        "index": 1
      },
      "pbrMetallicRoughness": {
        "baseColorTexture": {
          "index": 0
        },
        "metallicFactor": 0.0,
        "roughnessFactor": 0.7789281827137077
      }
    },
    {
      "doubleSided": true,
      "name": "Beak",
      "normalTexture": {
        "index": 1
      },
      "pbrMetallicRoughness": {
        "baseColorTexture": {
          "index": 0
        },
        "metallicFactor": 0.0
      }
    }
  ],
  "meshes": [
    {
      "name": "Dragonfly_V2a_body_0",
      "primitives": [
        {
          "attributes": {
            "JOINTS_0": 11,
            "NORMAL": 1,
            "POSITION": 0,
            "TANGENT": 2,
            "TEXCOORD_0": 3,
            "TEXCOORD_1": 3,
            "WEIGHTS_0": 12
          },
          "indices": 4,
          "material": 0,
          "mode": 4
        }
      ]
    },
    {
      "name": "Dragonfly_V2a_Beak _0",
      "primitives": [
        {
          "attributes": {
            "JOINTS_0": 13,
            "NORMAL": 6,
            "POSITION": 5,
            "TANGENT": 7,
            "TEXCOORD_0": 8,
            "TEXCOORD_1": 8,
            "WEIGHTS_0": 14
          },
          "indices": 9,
          "material": 1,
          "mode": 4
        }
      ]
    }
  ],
  "nodes": [
    {
      "children": [
        1
      ],
      "matrix": [
        1.0,
        0.0,
        0.0,
        0.0,
        0.0,
        2.220446049250313e-16,
        -1.0,
        0.0,
        0.0,
        1.0,
        2.220446049250313e-16,
        0.0,
        0.0,
        0.0,
        0.0,
        1.0
      ],
      "name": "Sketchfab_model"
    },
    {
      "children": [
        2
      ],
      "matrix": [
        0.009999999776482582,
        0.0,
        0.0,
        0.0,
        0.0,
        0.0,
        0.009999999776482582,
        0.0,
        0.0,
        -0.009999999776482582,
        0.0,
        0.0,
        0.0,
        0.0,
        0.0,
        1.0
      ],
      "name": "Skull island dragonfly.fbx"
    },
    {
      "children": [
        3
      ],
      "name": "RootNode"
    },
    {
      "children": [
        4
      ],
      "matrix": [
        12.54311752319336,
        -2.7787771675105888e-15,
        -2.5970835788280506e-15,
        0.0,
        2.597084421146922e-15,
        12.51449427199297,
        -0.8468945134404117,
        0.0,
        2.7787763802674803e-15,
        0.8468945134404117,
        12.51449427199297,
        0.0,
        8.570864660085564e-15,
        38.5997428894043,
        -17.833314895629883,
        1.0
      ],
      "name": "Armature"
    },
    {
      "children": [
        5,
        7,
        8,
        6
      ],
      "name": "Object_4"
    },
    {
      "children": [
        9
      ],
      "name": "_rootJoint"
    },
    {
      "matrix": [
        99.99996067255961,
        2.6438131007050398e-21,
        5.404079766748527e-22,
        0.0,
        -2.6438137253688256e-21,
        99.99998606806795,
        -8.650175232105541e-06,
        0.0,
        -5.404083426088154e-22,
        8.650175232105541e-06,
        99.99998606806795,
        0.0,
        4.933327715755485e-21,
        45.0495673735082,
        -2.683474775722061e-06,
        1.0
      ],
      "name": "Object_6"
    },
    {
      "mesh": 0,
      "name": "Object_7",
      "skin": 0
    },
    {
      "mesh": 1,
      "name": "Object_8",
      "skin": 0
    },
    {
      "children": [
        10,
        70
      ],
      "name": "Bone_01",
      "rotation": [
        0.7071068286895752,
        -6.536821963851013e-33,
        1.0894705722031586e-32,
        0.7071067094802856
      ]
    },
    {
      "children": [
        11,
        16,
        21,
        26,
        32,
        38,
        44,
        50,
        55,
        60,
        65
      ],
      "name": "Bone.001_02",
      "rotation": [
        -0.037295516580343246,
        -1.1912635500266333e-07,
        4.445971146793681e-09,
        0.9993042945861816
      ],
      "translation": [
        -4.930380657631324e-32,
        1.0,
        4.440892098500626e-16
      ]
    },
    {
      "children": [
        12,
        14
      ],
      "name": "Bone.002_03",
      "rotation": [
        0.06016610935330391,
        6.990755613685241e-15,
        -1.4344717413905528e-08,
        0.9981883764266968
      ],
      "translation": [
        -1.7763568394002505e-15,
        1.4090529680252075,
        -7.450580596923828e-09
      ]
    },
    {
      "children": [
        13
      ],
      "name": "beak.r_04",
      "rotation": [
        -0.05853747949004173,
        -0.11191652715206146,
        -0.24165137112140656,
        0.9621085524559021
      ],
      "scale": [
        0.9999999403953552,
        0.9999999403953552,
        1.0000001192092896
      ],
      "translation": [
        0.18814679980278015,
        1.1245784759521484,
        0.12364357709884644
      ]
    },
    {
      "name": "beak.r_end_056",
      "rotation": [
        -1.3877787807814457e-17,
        -3.469446951953614e-17,
        -2.7755575615628914e-17,
        1.0
      ],
      "translation": [
        0.0,
        0.32667794823646545,
        0.0
      ]
    },
    {
      "children": [
        15
      ],
      "name": "beak.l_05",
      "rotation": [
        -0.05853741988539696,
        0.11191673576831818,
        0.24165135622024536,
        0.9621084332466125
      ],
      "translation": [
        -0.18814674019813538,
        1.1245784759521484,
        0.1236436665058136
      ]
    },
    {
      "name": "beak.l_end_057",
      "rotation": [
        4.163336342344337e-17,
        -6.938893903907228e-18,
        2.7755575615628914e-17,
        1.0
      ],
      "translation": [
        2.220446049250313e-16,
        0.32667794823646545,
        4.440892098500626e-16
      ]
    },
    {
      "children": [
        17
      ],
      "name": "right leg.l_06",
      "rotation": [
        0.5923417210578918,
        0.20101620256900787,
        -0.16285493969917297,
        0.7630216479301453
      ],
      "scale": [
        0.9999999403953552,
        1.0000001192092896,
        1.0000001192092896
      ],
      "translation": [
        0.3391978144645691,
        1.3541810512542725,
        0.4356343746185303
      ]
    },
    {
      "children": [
        18
      ],
      "name": "right leg.l.001_07",
      "rotation": [
        0.17901159822940826,
        0.005064486525952816,
        -0.06041178107261658,
        0.9819774031639099
      ],
      "scale": [
        0.9999999403953552,
        0.9999998807907104,
        0.9999999403953552
      ],
      "translation": [
        1.862645149230957e-08,
        0.3962763845920563,
        2.905726432800293e-07
      ]
    },
    {
      "children": [
        19
      ],
      "name": "right leg.l.002_08",
      "rotation": [
        -0.42566147446632385,
        0.017209241166710854,
        0.3411339223384857,
        0.8379402160644531
      ],
      "translation": [
        2.220446049250313e-16,
        1.4032460451126099,
        -1.6763806343078613e-08
      ]
    },
    {
      "children": [
        20
      ],
      "name": "right leg.l.003_09",
      "rotation": [
        -0.11663062125444412,
        0.04961974918842316,
        0.20000284910202026,
        0.9715626835823059
      ],
      "scale": [
        1.0,
        1.0,
        1.0000001192092896
      ],
      "translation": [
        -6.332993507385254e-08,
        1.5196552276611328,
        2.9802322387695313e-08
      ]
    },
    {
      "name": "right leg.l.003_end_058",
      "rotation": [
        0.0,
        0.0,
        2.7755575615628914e-17,
        1.0
      ],
      "translation": [
        0.0,
        0.6005253195762634,
        0.0
      ]
    },
    {
      "children": [
        22
      ],
      "name": "right leg.r_010",
      "rotation": [
        0.5923418402671814,
        -0.2010161131620407,
        0.16285483539104462,
        0.7630217671394348
      ],
      "scale": [
        1.0,
        1.0,
        1.0000001192092896
      ],
      "translation": [
        -0.33919763565063477,
        1.3541810512542725,
        0.4356345236301422
      ]
    },
    {
      "children": [
        23
      ],
      "name": "right leg.r.001_011",
      "rotation": [
        0.17901161313056946,
        -0.005064421333372593,
        0.0604117214679718,
        0.9819774031639099
      ],
      "scale": [
        0.9999999403953552,
        0.9999998807907104,
        0.9999999403953552
      ],
      "translation": [
        -4.6566128730773926e-08,
        0.3962763249874115,
        8.195638656616211e-08
      ]
    },
    {
      "children": [
        24
      ],
      "name": "right leg.r.002_012",
      "rotation": [
        -0.4256613850593567,
        -0.017209269106388092,
        -0.3411337733268738,
        0.8379403352737427
      ],
      "scale": [
        0.9999999403953552,
        0.9999999403953552,
        0.9999998807907104
      ],
      "translation": [
        -8.195638656616211e-08,
        1.4032458066940308,
        2.384185791015625e-07
      ]
    },
    {
      "children": [
        25
      ],
      "name": "right leg.r.003_013",
      "rotation": [
        -0.11663063615560532,
        -0.04961974173784256,
        -0.20000283420085907,
        0.9715626835823059
      ],
      "scale": [
        1.0,
        1.0000001192092896,
        1.0000001192092896
      ],
      "translation": [
        1.4156103134155273e-07,
        1.5196549892425537,
        2.3096799850463867e-07
      ]
    },
    {
      "name": "right leg.r.003_end_059",
      "rotation": [
        2.7755575615628914e-17,
        -1.3877787807814457e-17,
        3.851859888774472e-34,
        1.0
      ],
      "translation": [
        0.0,
        0.6005253195762634,
        0.0
      ]
    },
    {
      "children": [
        27
      ],
      "name": "leg.l_014",
      "rotation": [
        0.6332266926765442,
        0.41390949487686157,
        -0.11867008358240128,
        0.6431331634521484
      ],
      "scale": [
        1.0,
        0.9999998807907104,
        0.9999998807907104
      ],
      "translation": [
        0.10444021224975586,
        0.9775206446647644,
        0.5514592528343201
      ]
    },
    {
      "children": [
        28
      ],
      "name": "leg.l.001_015",
      "rotation": [
        0.3504527509212494,
        -0.005267859436571598,
        0.07689210772514343,
        0.9334038496017456
      ],
      "translation": [
        -7.450580596923828e-08,
        0.36016079783439636,
        -3.3527612686157227e-08
      ]
    },
    {
      "children": [
        29
      ],
      "name": "leg.l.002_016",
      "rotation": [
        0.11422473937273026,
        -0.14639781415462494,
        -0.2431039959192276,
        0.9520613551139832
      ],
      "scale": [
        0.9999999403953552,
        0.9999998807907104,
        0.9999999403953552
      ],
      "translation": [
        8.940696716308594e-08,
        0.45658549666404724,
        7.450580596923828e-08
      ]
    },
    {
      "children": [
        30
      ],
      "name": "leg.l.003_017",
      "rotation": [
        -0.3054519593715668,
        0.16625304520130157,
        0.4068008065223694,
        0.8447319865226746
      ],
      "scale": [
        1.0000001192092896,
        1.0,
        1.0
      ],
      "translation": [
        5.960464477539063e-08,
        1.6233738660812378,
        1.4901161193847656e-07
      ]
    },
    {
      "children": [
        31
      ],
      "name": "leg.l.004_018",
      "rotation": [
        -0.056902430951595306,
        0.005615503992885351,
        0.04370984435081482,
        0.9974066615104675
      ],
      "scale": [
        0.9999999403953552,
        1.0,
        0.9999999403953552
      ],
      "translation": [
        -2.2351741790771484e-07,
        1.5702875852584839,
        -1.1920928955078125e-07
      ]
    },
    {
      "name": "leg.l.004_end_060",
      "rotation": [
        3.469446951953614e-18,
        5.551115123125783e-17,
        -5.811323644522304e-17,
        1.0
      ],
      "translation": [
        0.0,
        0.6375710964202881,
        2.220446049250313e-16
      ]
    },
    {
      "children": [
        33
      ],
      "name": "leg.l.005_019",
      "rotation": [
        0.8174693584442139,
        0.17437468469142914,
        -0.0812818631529808,
        0.5428909659385681
      ],
      "translation": [
        0.1044403463602066,
        0.7914992570877075,
        0.5441532731056213
      ]
    },
    {
      "children": [
        34
      ],
      "name": "leg.l.006_020",
      "rotation": [
        0.4299083948135376,
        -0.05771694704890251,
        -0.22315613925457,
        0.8729541301727295
      ],
      "scale": [
        0.9999999403953552,
        0.9999998807907104,
        0.9999999403953552
      ],
      "translation": [
        -2.9802322387695313e-08,
        0.3648320138454437,
        1.3224780559539795e-07
      ]
    },
    {
      "children": [
        35
      ],
      "name": "leg.l.007_021",
      "rotation": [
        0.11103152483701706,
        -0.25503018498420715,
        -0.03836623951792717,
        0.9597706198692322
      ],
      "scale": [
        1.0000001192092896,
        1.0,
        0.9999999403953552
      ],
      "translation": [
        2.220446049250313e-16,
        0.37045031785964966,
        4.470348358154297e-08
      ]
    },
    {
      "children": [
        36
      ],
      "name": "leg.l.008_022",
      "rotation": [
        -0.3054886758327484,
        0.43730291724205017,
        0.40143316984176636,
        0.7445093989372253
      ],
      "scale": [
        1.0,
        0.9999999403953552,
        1.0
      ],
      "translation": [
        -2.2351741790771484e-08,
        2.0664138793945313,
        1.6391277313232422e-07
      ]
    },
    {
      "children": [
        37
      ],
      "name": "leg.l.009_023",
      "rotation": [
        0.11006754636764526,
        0.019137034192681313,
        -0.04082249850034714,
        0.9929010272026062
      ],
      "scale": [
        1.0000001192092896,
        1.0000001192092896,
        1.0
      ],
      "translation": [
        8.195638656616211e-08,
        2.062760591506958,
        -1.2665987014770508e-07
      ]
    },
    {
      "name": "leg.l.009_end_061",
      "rotation": [
        2.7755575615628914e-17,
        3.851859888774472e-34,
        1.3877787807814457e-17,
        1.0
      ],
      "translation": [
        0.0,
        0.8645879626274109,
        4.440892098500626e-16
      ]
    },
    {
      "children": [
        39
      ],
      "name": "leg.r_024",
      "rotation": [
        0.633226752281189,
        -0.41390934586524963,
        0.11867008358240128,
        0.6431332230567932
      ],
      "scale": [
        1.0000001192092896,
        1.0000001192092896,
        1.0000001192092896
      ],
      "translation": [
        -0.10443994402885437,
        0.9775206446647644,
        0.5514592528343201
      ]
    },
    {
      "children": [
        40
      ],
      "name": "leg.r.001_025",
      "rotation": [
        0.3504526913166046,
        0.005267845932394266,
        -0.07689209282398224,
        0.9334038496017456
      ],
      "translation": [
        -5.960464477539063e-08,
        0.3601607084274292,
        9.313225746154785e-08
      ]
    },
    {
      "children": [
        41
      ],
      "name": "leg.r.002_026",
      "rotation": [
        0.11422473192214966,
        0.14639781415462494,
        0.24310402572155,
        0.9520613551139832
      ],
      "translation": [
        -2.9802322387695313e-08,
        0.45658549666404724,
        -7.450580596923828e-08
      ]
    },
    {
      "children": [
        42
      ],
      "name": "leg.r.003_027",
      "rotation": [
        -0.305451899766922,
        -0.16625303030014038,
        -0.4068008363246918,
        0.8447319865226746
      ],
      "scale": [
        0.9999998807907104,
        1.0,
        0.9999998807907104
      ],
      "translation": [
        -4.470348358154297e-08,
        1.6233736276626587,
        -2.9802322387695313e-08
      ]
    },
    {
      "children": [
        43
      ],
      "name": "leg.r.004_028",
      "rotation": [
        -0.05690238997340202,
        -0.005615490488708019,
        -0.043709900230169296,
        0.9974066615104675
      ],
      "scale": [
        0.9999999403953552,
        1.0,
        1.0
      ],
      "translation": [
        2.9802322387695313e-08,
        1.5702871084213257,
        0.0
      ]
    },
    {
      "name": "leg.r.004_end_062",
      "rotation": [
        3.469446951953614e-18,
        -2.7755575615628914e-17,
        1.0408340855860843e-17,
        1.0
      ],
      "translation": [
        0.0,
        0.6375710964202881,
        0.0
      ]
    },
    {
      "children": [
        45
      ],
      "name": "leg.r.005_029",
      "rotation": [
        0.8174694776535034,
        -0.17437458038330078,
        0.08128154277801514,
        0.5428910255432129
      ],
      "translation": [
        -0.10444007813930511,
        0.7914992570877075,
        0.5441532731056213
      ]
    },
    {
      "children": [
        46
      ],
      "name": "leg.r.006_030",
      "rotation": [
        0.42990848422050476,
        0.057716984301805496,
        0.22315613925457,
        0.8729540705680847
      ],
      "translation": [
        0.0,
        0.36483216285705566,
        7.916241884231567e-08
      ]
    },
    {
      "children": [
        47
      ],
      "name": "leg.r.007_031",
      "rotation": [
        0.11103154718875885,
        0.25503015518188477,
        0.03836623206734657,
        0.9597706198692322
      ],
      "scale": [
        1.0,
        1.0000001192092896,
        1.0000001192092896
      ],
      "translation": [
        8.940696716308594e-08,
        0.3704504072666168,
        1.6391277313232422e-07
      ]
    },
    {
      "children": [
        48
      ],
      "name": "leg.r.008_032",
      "rotation": [
        -0.3054889440536499,
        -0.43730294704437256,
        -0.4014332592487335,
        0.744509220123291
      ],
      "scale": [
        1.0000001192092896,
        1.0000001192092896,
        1.0
      ],
      "translation": [
        -9.685754776000977e-08,
        2.066413640975952,
        -8.940696716308594e-08
      ]
    },
    {
      "children": [
        49
      ],
      "name": "leg.r.009_033",
      "rotation": [
        0.1100677028298378,
        -0.01913696713745594,
        0.04082246124744415,
        0.9929010272026062
      ],
      "scale": [
        1.0,
        0.9999999403953552,
        0.9999998807907104
      ],
      "translation": [
        -1.341104507446289e-07,
        2.0627601146698,
        1.4901161193847656e-07
      ]
    },
    {
      "name": "leg.r.009_end_063",
      "rotation": [
        1.925929944387236e-34,
        1.3877787807814457e-17,
        -1.3877787807814457e-17,
        1.0
      ],
      "translation": [
        0.0,
        0.8645879626274109,
        0.0
      ]
    },
    {
      "children": [
        51
      ],
      "name": "wing.r_034",
      "rotation": [
        -0.055301766842603683,
        -0.05434394255280495,
        -0.712041974067688,
        0.6978428959846497
      ],
      "translation": [
        0.27337417006492615,
        0.19093020260334015,
        -1.0984286069869995
      ]
    },
    {
      "children": [
        52
      ],
      "name": "wing.r.001_035",
      "rotation": [
        -0.04055628553032875,
        0.001462934073060751,
        0.04931583255529404,
        0.9979584217071533
      ],
      "scale": [
        1.0,
        1.0,
        0.9999999403953552
      ],
      "translation": [
        1.341104507446289e-07,
        1.6768908500671387,
        7.12461769580841e-08
      ]
    },
    {
      "children": [
        53
      ],
      "name": "wing.r.002_036",
      "rotation": [
        0.030499301850795746,
        0.0018116277642548084,
        0.09002692997455597,
        0.9954705834388733
      ],
      "scale": [
        1.0,
        0.9999999403953552,
        0.9999998807907104
      ],
      "translation": [
        1.1920928955078125e-07,
        2.790381669998169,
        -2.9802322387695313e-08
      ]
    },
    {
      "children": [
        54
      ],
      "name": "wing.r.003_037",
      "rotation": [
        0.01319820899516344,
        -0.015373781323432922,
        0.039840903133153915,
        0.9990006685256958
      ],
      "scale": [
        0.9999998807907104,
        0.9999998211860657,
        0.9999998211860657
      ],
      "translation": [
        -1.4901161193847656e-07,
        2.770203113555908,
        5.960464477539063e-08
      ]
    },
    {
      "name": "wing.r.003_end_064",
      "rotation": [
        6.938893903907228e-18,
        0.0,
        0.0,
        1.0
      ],
      "translation": [
        -3.3306690738754696e-16,
        2.1204705238342285,
        0.0
      ]
    },
    {
      "children": [
        56
      ],
      "name": "wing.l_038",
      "rotation": [
        -0.05530161038041115,
        0.05434408783912659,
        0.7120420336723328,
        0.6978428363800049
      ],
      "scale": [
        1.0,
        1.0,
        0.9999999403953552
      ],
      "translation": [
        -0.2733747065067291,
        0.19093018770217896,
        -1.0984283685684204
      ]
    },
    {
      "children": [
        57
      ],
      "name": "wing.l.001_039",
      "rotation": [
        -0.04055625572800636,
        -0.0014629445504397154,
        -0.04931582137942314,
        0.9979584217071533
      ],
      "scale": [
        1.0,
        1.0000001192092896,
        1.0
      ],
      "translation": [
        -8.568167686462402e-08,
        1.6768909692764282,
        -6.891787052154541e-08
      ]
    },
    {
      "children": [
        58
      ],
      "name": "wing.l.002_040",
      "rotation": [
        0.030499309301376343,
        -0.0018116268329322338,
        -0.09002692997455597,
        0.9954705834388733
      ],
      "scale": [
        1.0000001192092896,
        1.0000001192092896,
        0.9999999403953552
      ],
      "translation": [
        -2.384185791015625e-07,
        2.790381908416748,
        5.960464477539063e-08
      ]
    },
    {
      "children": [
        59
      ],
      "name": "wing.l.003_041",
      "rotation": [
        0.013198211789131165,
        0.015373795293271542,
        -0.039840925484895706,
        0.9990006685256958
      ],
      "scale": [
        0.9999999403953552,
        0.9999998807907104,
        1.0
      ],
      "translation": [
        2.9802322387695313e-08,
        2.7702035903930664,
        1.4901161193847656e-08
      ]
    },
    {
      "name": "wing.l.003_end_065",
      "rotation": [
        -1.3877787807814457e-17,
        2.7755575615628914e-17,
        -5.551115123125783e-17,
        1.0
      ],
      "translation": [
        0.0,
        2.1204705238342285,
        8.881784197001252e-16
      ]
    },
    {
      "children": [
        61
      ],
      "name": "wing.r.004_042",
      "rotation": [
        0.058037951588630676,
        0.11566296964883804,
        0.877471387386322,
        -0.4618416130542755
      ],
      "scale": [
        1.0000001192092896,
        1.0000001192092896,
        0.9999999403953552
      ],
      "translation": [
        0.3082510828971863,
        -0.4047035574913025,
        -0.8457473516464233
      ]
    },
    {
      "children": [
        62
      ],
      "name": "wing.r.005_043",
      "rotation": [
        -0.024533677846193314,
        0.02381949871778488,
        0.17524133622646332,
        0.9839316010475159
      ],
      "scale": [
        1.0,
        1.0000001192092896,
        0.9999999403953552
      ],
      "translation": [
        8.940696716308594e-08,
        1.7909876108169556,
        3.5390257835388184e-08
      ]
    },
    {
      "children": [
        63
      ],
      "name": "wing.r.006_044",
      "rotation": [
        -0.02779947593808174,
        0.014986798167228699,
        0.06427838653326035,
        0.9974322319030762
      ],
      "scale": [
        0.9999999403953552,
        0.9999998807907104,
        1.0
      ],
      "translation": [
        -1.564621925354004e-07,
        2.5997519493103027,
        4.470348358154297e-08
      ]
    },
    {
      "children": [
        64
      ],
      "name": "wing.r.007_045",
      "rotation": [
        0.05271415039896965,
        0.008154123090207577,
        0.013323907740414143,
        0.9984874725341797
      ],
      "scale": [
        0.9999998211860657,
        0.9999998807907104,
        0.9999998807907104
      ],
      "translation": [
        -9.685754776000977e-08,
        2.1597695350646973,
        2.9802322387695313e-08
      ]
    },
    {
      "name": "wing.r.007_end_066",
      "translation": [
        2.220446049250313e-16,
        2.6192636489868164,
        -8.881784197001252e-16
      ]
    },
    {
      "children": [
        66
      ],
      "name": "wing.l.004_046",
      "rotation": [
        -0.05803772434592247,
        0.1156630590558052,
        0.877471387386322,
        0.4618416130542755
      ],
      "scale": [
        1.000000238418579,
        1.0,
        1.0
      ],
      "translation": [
        -0.3082515001296997,
        -0.4047035574913025,
        -0.845747172832489
      ]
    },
    {
      "children": [
        67
      ],
      "name": "wing.l.005_047",
      "rotation": [
        -0.02453366294503212,
        -0.02381947636604309,
        -0.1752413660287857,
        0.9839314818382263
      ],
      "scale": [
        0.9999999403953552,
        1.0000001192092896,
        0.9999999403953552
      ],
      "translation": [
        1.341104507446289e-07,
        1.7909876108169556,
        2.421438694000244e-08
      ]
    },
    {
      "children": [
        68
      ],
      "name": "wing.l.006_048",
      "rotation": [
        -0.027799470350146294,
        -0.014986768364906311,
        -0.06427834182977676,
        0.9974321722984314
      ],
      "scale": [
        0.9999998211860657,
        0.9999997615814209,
        1.0
      ],
      "translation": [
        -3.725290298461914e-08,
        2.5997519493103027,
        -4.440892098500626e-16
      ]
    },
    {
      "children": [
        69
      ],
      "name": "wing.l.007_049",
      "rotation": [
        0.05271414294838905,
        -0.008154128678143024,
        -0.013323899358510971,
        0.9984874725341797
      ],
      "scale": [
        0.9999998211860657,
        0.9999999403953552,
        0.9999999403953552
      ],
      "translation": [
        1.4156103134155273e-07,
        2.1597704887390137,
        5.960464477539063e-08
      ]
    },
    {
      "name": "wing.l.007_end_067",
      "rotation": [
        6.938893903907228e-18,
        4.81482486096809e-35,
        6.938893903907228e-18,
        1.0
      ],
      "translation": [
        -2.220446049250313e-16,
        2.6192636489868164,
        0.0
      ]
    },
    {
      "children": [
        71
      ],
      "name": "Bone.003_050",
      "rotation": [
        0.9905010461807251,
        -3.278394444805599e-08,
        2.3615388045072905e-07,
        -0.13750533759593964
      ],
      "scale": [
        1.0,
        1.0000001192092896,
        1.0000048875808716
      ]
    },
    {
      "children": [
        72
      ],
      "name": "Bone.004_051",
      "rotation": [
        0.04643811658024788,
        -1.218402006890329e-13,
        2.2143526123841184e-08,
        0.9989211559295654
      ],
      "translation": [
        0.0,
        1.175926685333252,
        4.440892098500626e-16
      ]
    },
    {
      "children": [
        73
      ],
      "name": "Bone.005_052",
      "rotation": [
        -0.008866781368851662,
        3.1096063495428955e-14,
        -4.22801482713453e-09,
        0.9999607801437378
      ],
      "scale": [
        1.0,
        1.0,
        0.9999999403953552
      ],
      "translation": [
        2.1473579479239918e-14,
        1.0088553428649902,
        -3.725290298461914e-08
      ]
    },
    {
      "children": [
        74
      ],
      "name": "Bone.006_053",
      "rotation": [
        -0.021185364574193954,
        2.2239871551896044e-14,
        -1.0102024994296244e-08,
        0.9997755885124207
      ],
      "scale": [
        1.0,
        1.0,
        0.9999998807907104
      ],
      "translation": [
        1.6566048459767425e-14,
        1.237305760383606,
        6.705522537231445e-08
      ]
    },
    {
      "children": [
        75
      ],
      "name": "Bone.007_054",
      "rotation": [
        -0.016612989827990532,
        3.5493731926147668e-15,
        -7.921717504189019e-09,
        0.999862015247345
      ],
      "scale": [
        1.0,
        0.9999999403953552,
        1.0
      ],
      "translation": [
        6.168757318110105e-14,
        1.1751452684402466,
        7.450580596923828e-09
      ]
    },
    {
      "children": [
        76
      ],
      "name": "Bone.008_00",
      "rotation": [
        0.0025241083931177855,
        2.84218652844663e-14,
        1.203587451925614e-09,
        0.9999968409538269
      ],
      "scale": [
        1.0,
        0.9999999403953552,
        1.0
      ],
      "translation": [
        8.814547399274564e-14,
        1.2236186265945435,
        2.9802322387695313e-08
      ]
    },
    {
      "children": [
        77
      ],
      "name": "Bone.009_055",
      "rotation": [
        -0.022168686613440514,
        -7.98604346714804e-15,
        -1.0570905040196976e-08,
        0.9997542500495911
      ],
      "translation": [
        5.804328507630699e-14,
        1.0622519254684448,
        -1.341104507446289e-07
      ]
    },
    {
      "name": "Bone.009_end_068",
      "rotation": [
        -1.3877787807814457e-17,
        2.3988237764037803e-23,
        3.3290367357271814e-40,
        1.0
      ],
      "translation": [
        -4.235164736271502e-22,
        1.3378393650054932,
        4.440892098500626e-16
      ]
    }
  ],
  "samplers": [
    {
      "magFilter": 9729,
      "minFilter": 9987,
      "wrapS": 10497,
      "wrapT": 10497
    }
  ],
  "scene": 0,
  "scenes": [
    {
      "name": "Sketchfab_Scene",
      "nodes": [
        0
      ]
    }
  ],
  "skins": [
    {
      "inverseBindMatrices": 10,
      "joints": [
        5,
        9,
        10,
        11,
        12,
        13,
        14,
        15,
        16,
        17,
        18,
        19,
        20,
        21,
        22,
        23,
        24,
        25,
        26,
        27,
        28,
        29,
        30,
        31,
        32,
        33,
        34,
        35,
        36,
        37,
        38,
        39,
        40,
        41,
        42,
        43,
        44,
        45,
        46,
        47,
        48,
        49,
        50,
        51,
        52,
        53,
        54,
        55,
        56,
        57,
        58,
        59,
        60,
        61,
        62,
        63,
        64,
        65,
        66,
        67,
        68,
        69,
        70,
        71,
        72,
        73,
        74,
        75,
        76,
        77
      ],
      "skeleton": 5
    }
  ],
  "textures": [
    {
      "sampler": 0,
      "source": 0
    },
    {
      "sampler": 0,
      "source": 1
    }
  ]
}
